# xmcd CD database file
#
# Track frame offsets:
#	150
#	18562
#	39802
#
# Disc length: 774 seconds
#
# Revision: 0
# Processed by: cddbd v1.5PL3 Copyright (c) Steve Scherf et al.
# Submitted via: CDex 1.50beta9
#
DISCID=17030403
DTITLE=森高千里 - 銀色の夢
DYEAR=1996
DGENRE=J-POP
TTITLE0=銀色の夢
TTITLE1=太陽と青い月
TTITLE2=銀色の夢　カラオケ
EXTD=YEAR: 1996
EXTT0=
EXTT1=
EXTT2=
PLAYORDER=
